<svg width="26" height="26" viewBox="0 0 26 26" fill="none" xmlns="http://www.w3.org/2000/svg">
<rect x="13.7916" y="5.65685" width="9" height="3" rx="0.5" transform="rotate(45 13.7916 5.65685)" stroke="#AAAAAA"/>
<path d="M21.9234 7.42462L18.7414 10.6066L15.2058 7.07107L18.3878 3.88909C19.3641 2.91278 20.9471 2.91278 21.9234 3.88909C22.8997 4.8654 22.8997 6.44831 21.9234 7.42462Z" stroke="#AAAAAA"/>
<path d="M8.58906 13.6879L13.0845 9.19239L16.6201 12.7279L12.1246 17.2234C12.0558 17.2922 11.9773 17.3506 11.8916 17.3968L7.55385 19.7325C7.46816 19.7786 7.38966 19.837 7.32084 19.9058L6.47871 20.748C6.40271 20.824 6.31495 20.8872 6.21882 20.9353C5.35926 21.3651 4.4474 20.4532 4.87717 19.5936C4.92524 19.4975 4.98849 19.4097 5.06449 19.3337L5.90663 18.4916C5.97544 18.4228 6.03385 18.3443 6.07999 18.2586L8.4157 13.9209C8.46184 13.8352 8.52024 13.7567 8.58906 13.6879Z" stroke="#AAAAAA"/>
</svg>
